<?xml version="1.0" encoding="UTF-8"?>
<svg id="Layer_2" data-name="Layer 2" xmlns="http://www.w3.org/2000/svg" viewBox="0 0 996.44 183.05">
  <defs>
    <style>
      .cls-1 {
        fill: #0f1117;
      }

      .cls-2 {
        fill: #f2f3f5;
      }

      .cls-3 {
        fill: #3d2be8;
      }
    </style>
  </defs>
  <g id="Layer_1-2" data-name="Layer 1">
    <g>
      <path class="cls-3" d="M23.49.8c-1.46-.43-2.96-.7-4.49-.8-4.25.71-6.73,1.08-10.39,3.44-10.84,6.98-11.98,22.02-.36,28.94,9.26,5.51,19.23,10.27,28.87,15.2l45.61,23.65c7.45,3.83,16.48,7.24,23.16,12.14,2.15,1.58,3.46,3.24,4.01,5.92.41,1.99.4,4.26-.89,5.95-3.91,5.09-67.47,37.18-78.31,42.81-8.21,4.27-19.44,8.63-25.9,15.31-3.48,3.6-5.02,7.97-4.59,12.96.41,4.69,2.93,8.86,6.57,11.78,3.94,3.17,9.37,4.99,14.43,4.42,2.29-.26,4.36-1.02,6.49-1.86l82.92-43.79c12.08-6.41,25.12-11.96,36.25-19.86,10.23-7.26,14.3-19.48,12.42-31.62-2.82-18.24-19.17-24.99-33.62-32.5l-34.28-17.59L48.76,12.99C43,9.97,29.12,2.42,23.49.8Z"/>
      <path class="cls-2" d="M585.93,16.55c-10.94-8.73-23.82-11.04-37.36-10.87-30.96,1.65-51.97,20.73-50.23,52.93.66,13.38,6.72,25.91,16.8,34.73,11,9.61,25.17,12.43,39.41,12.01,15.65-1.49,27.09-5.35,37.52-17.92,16.83-20.28,14.79-54.19-6.14-70.88ZM551.57,88.4c-18.38.53-33.68-14-34.09-32.38-.42-18.38,14.2-33.59,32.59-33.9,18.23-.3,33.28,14.17,33.69,32.39.41,18.23-13.96,33.37-32.18,33.89Z"/>
      <path class="cls-2" d="M685.89,52.82c-.67-.23-1.35-.45-2.04-.66,21.47-10.24,16.78-37.6-1.74-42.69-11.63-3.19-30.83-2.71-47.11-2.3-5.72.14-11.07.28-15.61.24v96.14c11.34.04,22.7.08,34.06.09,1.51,0,3.09.02,4.71.05,15.05.21,34.12.47,41.6-14.65,5.31-14.7,2.31-30.7-13.88-36.22ZM638.29,23.11c1,0,2.16-.04,3.38-.08,2.7-.08,5.7-.17,7.9.05,2.24.22,5,.11,7.91-.01,9.76-.4,21.25-.88,21.02,11.09-.07,3.7-.9,5.99-3.03,8.92-6.21,4.01-20.01,3.48-30.28,3.08-2.63-.1-5.03-.2-7.02-.2-.02-7.62.02-15.23.12-22.85ZM677.96,84.4c-7.02,4.38-21.94,3.92-33.12,3.57-2.44-.08-4.7-.15-6.67-.16-.03-8.69.09-17.38.38-26.07,2.53.03,5.39-.06,8.42-.15,10.68-.33,23.42-.73,30.92,3.82,6.68,4.06,4.28,13.85.06,18.99Z"/>
      <path class="cls-3" d="M220,2.24c-4.07-1.83-7.85-2.15-12.24-1.71-11.37,4.29-14.99,9.97-14.97,22.05.03,16.09.15,32.17.27,48.26.22,30,.44,59.99.11,90-.04,3.41.72,8.58,1.74,11.95,4.03,8.79,12.35,10.86,21.15,10.13,5.8-2.14,10.54-5.27,13.36-10.95,1.09-2.2,1.14-5.11,1.25-7.52.54-11.4.4-22.94.27-34.44-.07-5.96-.14-11.91-.12-17.83.01-2.94.09-8.19.19-14.79.42-27.56,1.2-78.81-1.13-85.33-1.56-4.33-5.78-7.97-9.87-9.81Z"/>
      <path class="cls-2" d="M986.66,48.89c-9.92-8.88-30.87-8.35-45.92-7.97-2.51.06-4.86.12-6.96.13l.14-33.77-19.43-.02.04,96.31c2.9.01,5.82.05,8.75.09,5.97.08,11.96.16,17.85.01,3.45-.09,6.89,0,10.29.07,13.02.3,25.58.6,36.4-8.59,11.51-12.98,11.83-34.62-1.16-46.25ZM968.59,86.36c-7.87,1.98-19.03,1.76-28.5,1.57-2.18-.04-4.26-.08-6.2-.1.14-10.03.22-20.07.24-30.11l7.19-.13c1.27-.01,2.67-.06,4.17-.11,11.53-.39,28.6-.96,31.1,11.63,1.59,7.99-1.15,13.35-8,17.24Z"/>
      <path class="cls-2" d="M874.55,8.35c-12.9-1.65-26.68-1.42-40.17-1.2-5.3.09-10.55.17-15.69.14l-.02,96.33h19.49s.05-32.81.05-32.81c2.53,0,5.09.01,7.68.03,6.39.03,12.89.07,19.1-.08,9.33-.44,19.31-2,25.74-9.6,13.4-15.83,7.05-49.85-16.17-52.81ZM874.18,50.5c-6.58,5.37-18.81,4.95-29.21,4.59-2.39-.08-4.68-.16-6.79-.17l.17-31.59c1.88,0,3.86-.03,5.9-.06,7.04-.09,14.76-.19,21.06.46,13.8,1.41,15.76,17.19,8.87,26.77Z"/>
      <path class="cls-2" d="M793.86,70.11c-8.2-20.55-15.15-42.37-23.79-62.64l-24.67.09c-12.52,31.01-23.39,65.75-36.08,96.06h20.84c2.34-6.85,5.26-14.74,7.27-21.61l34.6-.06,5.91-.04c2.49,7.37,5.12,14.68,7.91,21.94h20.5c-3.71-11.11-8.15-22.84-12.5-33.74ZM759.07,66.71h-16.07c4.75-14.27,9.76-28.35,14.33-42.69,1.6,1.48,13.55,37.18,15.83,42.73l-14.09-.03Z"/>
      <path class="cls-2" d="M481.3,7.34l-68.53.07c-.14,13.65-.13,66.8-8.33,75.33-3.63,3.77-8.94,3.84-13.8,4.03v16.94h.07c10.2.03,17.39.06,25.67-7.54,13.62-12.5,14.28-53.62,14.26-72.27v-.43s29.53.03,29.53.03l1.66.2c.95,1.39.6,62.1.51,77.14,0,1.26-.01,2.19-.02,2.75l19.02.02-.05-96.27Z"/>
      <path class="cls-2" d="M383.19,42.15c-4.3-26.28-25.5-38.1-50.84-36.47-29.8,1.92-48.44,23.83-46.81,53.68,1.61,29.5,26.7,48.39,55.3,45.95,23.81-1.92,38.71-13.92,44.04-37.38-6.3-.12-12.6-.17-18.9-.15-1.88,5.29-2.93,7.75-6.47,12.13-6.97,6.69-13.67,9.28-23.37,9.15-42.7-.58-41.26-70.8,2.6-66.93,14.39,1.27,21.61,6.57,26.78,20.06l17.67-.04Z"/>
      <path class="cls-2" d="M428.02,148.61c-3.26-11.96-15.58-19.03-27.55-15.81-12.03,3.24-19.13,15.63-15.86,27.65,3.28,12.02,15.69,19.08,27.7,15.77,11.95-3.3,18.97-15.65,15.71-27.61ZM408,168.29c-7.17-.42-13.81-2.22-14.77-10.36-1.18-10.07,2.44-15.67,12.17-17.35,6.3.27,12.03,2.41,13.25,9.23,1.67,9.41-.66,16.56-10.65,18.48Z"/>
      <path class="cls-2" d="M772.6,133.68l-11.24.05c-2.06,3.4-9.16,16.62-12.28,17.45-3.12-2.14-2.75-10.09-2.52-14.97.04-.81.07-1.53.08-2.13l-9.36-.1c.03.7.08,1.48.13,2.32.28,4.64.68,11.05-1.4,14.08-3.13.56-7.75-7.35-10.86-12.67-.96-1.65-1.78-3.05-2.36-3.87l-10.87-.11c3.93,5.82,9.32,13.64,13.68,19.22-5.23,6.94-10.32,15.21-15.08,22.57l10.48-.02c2.92-4.04,11.12-18.11,15.27-18.66,2,1.71,1.73,10.27,1.57,15.52-.04,1.22-.07,2.26-.07,3l8.61-.02c0-.68-.03-1.5-.05-2.41-.14-5.08-.36-13.01,1.49-15.94l1.16-.38c3.27,1.94,10.9,14.79,13.72,18.84l8.1.02,1.46-.32c.42-3.15-9.49-15.93-13.11-20.6-.32-.41-.58-.76-.79-1.03l-.29-.38c5.28-6.52,9.7-12.68,14.56-19.49Z"/>
      <path class="cls-2" d="M485.68,133.68l-12.07-.05c-3.3,8.26-7.1,18.22-11.03,26.11-3.44-8.35-7.12-17.86-10.95-25.95l-11.91.04-.02,41.67h8.79c.58-2.65.48-7.81.37-13.01-.12-6.02-.24-12.09.7-14.39,2.91,7.36,5.99,14.65,9.24,21.87l7.82.06c2.56-7.23,5.28-13.29,8.39-20.27l2.17.5c-.25,8.26-.33,16.52-.24,24.77l8.8-.06-.06-41.29Z"/>
      <path class="cls-2" d="M368.28,136.23c-3.32-2.86-18.91-2.49-26.8-2.31-1.11.03-2.07.05-2.82.06l.03,41.47,8.85-.02.03-13.49c4.63.04,8.94.04,13.57-.08,13.51-2.45,16.98-17.16,7.14-25.64ZM365.69,152.45c-4.07,2.21-8.29,2.12-12.88,2.02-1.09-.02-2.2-.05-3.33-.04v-12.84c.95-.02,1.94-.07,2.94-.11,8.17-.37,17.47-.79,13.27,10.97Z"/>
      <path class="cls-2" d="M951.72,145.51c-1.36-13.2-18.38-12.42-30.18-11.88-1.8.08-3.48.16-4.97.18l.06,41.66h9.01s.03-13.51.03-13.51h12.8c4.2-.4,6.64-1.09,9.55-4.53,2.78-3.32,4.11-7.61,3.7-11.92ZM941.25,152.65c-3.47,2-7.46,1.83-11.75,1.65-1.29-.05-2.6-.11-3.93-.11v-12.59c1.04,0,2.15-.03,3.29-.06,7.97-.23,17.13-.5,12.39,11.11Z"/>
      <path class="cls-2" d="M650.73,133.64h-9.38c-6.03,9.32-12.37,20.52-18.14,30.17l-.03-29.91-8.59-.08v41.68s9.39,0,9.39,0l15.64-25.55c1.61,3.17,1.07,2.2,1.99,5.85l.09,19.67,9-.04.04-41.8Z"/>
      <path class="cls-1" d="M641.7,154c.22-3.16.54-7.88-2.09-4.05,1.61,3.17,1.07,2.2,1.99,5.85,0-.44.05-1.08.1-1.8Z"/>
      <path class="cls-2" d="M980.17,133.67h-10.82s-15.49,41.78-15.49,41.78l9.47-.06c1.12-3.1,2.31-6.26,3.3-9.4l15.78-.05c1.6,2.14,2.93,6.9,3.84,9.61l10.14-.05c-3.42-9.96-11.82-31.94-16.22-41.84ZM980.1,158.76c-.54.51-2.09.44-3.12.39-.22-.01-.41-.02-.57-.02-.24,0-.61,0-1.06.02-1.89.03-5.18.09-5.83-.18-.06-.14-.09-.22-.11-.31-.02-.13-.01-.27.01-.65l-.03.04c.24-1.45,4.47-14.14,5.1-15.94.96,1.71,6.01,15.41,5.61,16.66Z"/>
      <path class="cls-2" d="M833.68,134c-2.58-.08-5.17-.13-7.76-.15-.3.11-1.39.43-1.39.73-.23,10.52-.17,27.68-.13,38.51v2.32c3.02.02,6.03,0,9.05-.03.24-5.7.21-11.29.25-16.99,6.18-.01,12.37-.07,18.55-.16,0,1.04,0,2.13,0,3.24,0,3.1,0,6.39-.17,9.24-.3,5.1.58,5.05,4.19,4.83.91-.06,1.99-.12,3.27-.12.3-.04,1.42-.13,1.44-.42.5-7.28.4-25.14.34-35.4-.02-2.28-.03-4.18-.03-5.51-3.05-.02-6.09-.02-9.14,0-.03,5.46.03,10.92.17,16.38-6.22-.04-12.44-.03-18.66.02l.03-16.49Z"/>
      <path class="cls-2" d="M701.36,133.86l-9.18-.07-.06,16.76h-18.63s-.01-16.5-.01-16.5l-9.04-.14-.05,41.44c.4,0,.87,0,1.39.02,2.51.04,6.06.1,7.71-.51l.12-16.84c1.85.01,3.72.04,5.6.06,4.34.05,8.72.11,12.98.06,0,1.06-.01,2.16-.02,3.28-.04,4.69-.08,9.79.29,14.13l8.77.04.13-41.71Z"/>
      <path class="cls-2" d="M535.46,133.9c-12.04-.12-24.07-.15-36.11-.1-.1,13.82-.1,27.65,0,41.47l8.76-.06.05-33.42,18.16-.02v7.89s0,25.81,0,25.81h9.2s-.05-41.56-.05-41.56Z"/>
      <path class="cls-2" d="M327.55,133.84c-12.13-.13-24.26-.18-36.39-.15-.14,13.9-.18,27.8-.11,41.71l8.97-.02.07-33.62h18.59v7.76s.02,25.83.02,25.83l8.79-.03.06-41.47Z"/>
      <path class="cls-2" d="M905.65,133.9l-31.11-.09c-.14,13.88-.15,27.76-.05,41.64l31.08-.05v-7.56c-7.29-.08-14.59-.11-21.88-.1-.01-.43-.02-.91-.04-1.42-.08-2.64-.19-6.14.45-8.1l1.37-.45,18.09-.02-.04-7.23h-19.85s.03-8.92.03-8.92l21.99.05-.04-7.74Z"/>
      <path class="cls-2" d="M812.29,134.36c-5.62-.61-25.87-.37-30.44-.29l.09,41.27,30.67.02c0-.24.03-.58.05-1,.14-2.22.4-6.4-1.03-6.44-5.08-.14-10.58-.12-15.85-.1-1.68,0-3.34.01-4.96.01.03-2.58.03-5.17,0-7.75-.02-1.73.61-2.07,2.16-2.11h17.98c.05-2.43.02-4.85-.08-7.27-6.7-.09-13.39-.12-20.09-.08l.12-8.99,21.68.03c0-.21,0-.52.02-.9.04-2.13.12-6.34-.31-6.38Z"/>
      <path class="cls-2" d="M580.11,133.69h-35.63s0,8.02,0,8.02l13.51-.03.03,33.73,8.81-.02v-12.78s0-20.9,0-20.9h13.3s0-8.03,0-8.03Z"/>
      <path class="cls-2" d="M602.83,154.18h-22.09c0,.21,0,.5-.01.84-.04,1.97-.1,5.59.57,5.71,3.14.53,12.83.43,18.39.37,1.34-.01,2.44-.03,3.15-.03v-.15c.02-2.27.04-4.46-.01-6.74Z"/>
    </g>
  </g>
</svg>